<svg xmlns="http://www.w3.org/2000/svg" viewBox="0 0 32 32" width="24" height="24" style="border-color: rgba(0,0,0,0);border-width: bpx;border-style: undefined" filter="none">
  <g>
   <path d="M17.333 5.407c6 0.663 10.667 5.749 10.667 11.927v12h-24v-12c0-6.177 4.667-11.264 10.667-11.927v-4.073h2.667v4.073zM25.333 26.667v-9.333c0-5.155-4.179-9.333-9.333-9.333s-9.333 4.179-9.333 9.333v0 9.333h18.667zM16 24c-3.682 0-6.667-2.985-6.667-6.667s2.985-6.667 6.667-6.667v0c3.682 0 6.667 2.985 6.667 6.667s-2.985 6.667-6.667 6.667v0zM16 21.333c2.209 0 4-1.791 4-4s-1.791-4-4-4v0c-2.209 0-4 1.791-4 4s1.791 4 4 4v0zM16 18.667c-0.736 0-1.333-0.597-1.333-1.333s0.597-1.333 1.333-1.333v0c0.736 0 1.333 0.597 1.333 1.333s-0.597 1.333-1.333 1.333v0z" fill="rgba(82.11,204,110.925,1)"></path>
  </g>
</svg>